<svg
  xmlns="http://www.w3.org/2000/svg"
  xmlns:xlink="http://www.w3.org/1999/xlink" viewBox="0 0 1300 700">
  <defs>
    <clipPath id="clip-path">
      <rect x="0.5" y="-0.5" width="1298" height="700" style="fill: none"/>
    </clipPath>
    <image id="ewa-brigitta" width="675" height="802" xlink:href="./usable-svg/imgs/ewa-brigitta.jpg"/>
  </defs>
  <title>Artboard6</title>
  <g id="Artboard_6" data-name="Artboard 6">
    <g style="clip-path: url(#clip-path)">
      <rect width="1300" height="700" style="fill: #040322;stroke: #000;stroke-miterlimit: 10"/>
      <g>
        <text transform="translate(50.6 115.84)" style="font-size: 100.28652954101562px;fill: none;stroke: #fff;stroke-miterlimit: 10;stroke-width: 2px;font-family: FranklinGothic-Heavy, Franklin Gothic Heavy;font-weight: 800;letter-spacing: 0.002998055417231142em">{
          
          
          
          <tspan x="0" y="89.25">code;</tspan>
          <tspan x="0" y="178.51">}</tspan>
        </text>
        <rect x="163.5" y="388.5" width="389" height="178" style="fill: none;stroke: #fff;stroke-miterlimit: 10;stroke-width: 2px"/>
        <rect x="148.5" y="369.5" width="385" height="177" style="fill: none;stroke: #fff;stroke-miterlimit: 10;stroke-width: 2px"/>
        <g>
          <use transform="translate(432.63 44.5) scale(0.48)" xlink:href="#ewa-brigitta" style="opacity: 0.6000000000000001"/>
          <use transform="translate(424.53 49.13) scale(0.48)" xlink:href="#ewa-brigitta" style="opacity: 0.6000000000000001"/>
        </g>
        <g>
          <polygon points="135.9 617.9 282.86 496.8 104.5 430.08 135.9 617.9" style="fill: #ec002e"/>
          <polygon points="127.13 619.38 31.39 671 109.2 512.11 127.13 619.38" style="fill: none;stroke: #ec002e;stroke-miterlimit: 10;stroke-width: 2px"/>
          <polygon points="199.3 622.5 142.92 622.33 170.86 598.89 199.3 622.5" style="fill: none;stroke: #ec002e;stroke-miterlimit: 10;stroke-width: 2px"/>
        </g>
        <image width="771" height="1080" transform="translate(879.5 -1.5) scale(0.65)" xlink:href="./usable-svg/imgs/line-artgif.gif"/>
        <path d="M832.26,594.09c0,2.32,1.27,3.47,3.8,3.47a6.12,6.12,0,0,0,4.1-1.43q1.7-1.44,1.69-6.34v-1.85Q832.27,589,832.26,594.09Zm0,0c0,2.32,1.27,3.47,3.8,3.47a6.12,6.12,0,0,0,4.1-1.43q1.7-1.44,1.69-6.34v-1.85Q832.27,589,832.26,594.09Zm0,0c0,2.32,1.27,3.47,3.8,3.47a6.12,6.12,0,0,0,4.1-1.43q1.7-1.44,1.69-6.34v-1.85Q832.27,589,832.26,594.09Zm0,0c0,2.32,1.27,3.47,3.8,3.47a6.12,6.12,0,0,0,4.1-1.43q1.7-1.44,1.69-6.34v-1.85Q832.27,589,832.26,594.09Zm0,0c0,2.32,1.27,3.47,3.8,3.47a6.12,6.12,0,0,0,4.1-1.43q1.7-1.44,1.69-6.34v-1.85Q832.27,589,832.26,594.09Zm0,0c0,2.32,1.27,3.47,3.8,3.47a6.12,6.12,0,0,0,4.1-1.43q1.7-1.44,1.69-6.34v-1.85Q832.27,589,832.26,594.09Zm0,0c0,2.32,1.27,3.47,3.8,3.47a6.12,6.12,0,0,0,4.1-1.43q1.7-1.44,1.69-6.34v-1.85Q832.27,589,832.26,594.09Zm0,0c0,2.32,1.27,3.47,3.8,3.47a6.12,6.12,0,0,0,4.1-1.43q1.7-1.44,1.69-6.34v-1.85Q832.27,589,832.26,594.09Zm144.56,12.6q-9.52,0-15.12-5.94a19.65,19.65,0,0,1-5.61-13.94,19.28,19.28,0,0,1,5.85-14.34,19.64,19.64,0,0,1,11.3-5.45,123,123,0,0,0-196.33-61,19.44,19.44,0,0,1,1.53,1.35q5.65,5.59,5.66,15.21c0,.53,0,1.26,0,2.19H758.51l-.07.08h0a9.87,9.87,0,0,0,1.28,5.28q1.2,1.75,4.59,1.76,4.89,0,5.76-4.72l14,.94a16.54,16.54,0,0,1-6.34,9.64q-5.1,4-13.79,4t-14.13-4.46a122.67,122.67,0,0,0-8.66,17.17h.38l7.63,29.7,7.19-29.7h12.07l-13.62,51.5H741.54l-7.18-28.41-.49,2v.06a123,123,0,1,0,244,27.07ZM852.47,528.77a23.25,23.25,0,0,0-5.35-1.11q-11.65-1.62-14.55-5.08a11.6,11.6,0,0,1-2.9-7.67,11.34,11.34,0,0,1,4.89-9.53q4.89-3.64,12.83-3.64,13.92,0,17.76,10.07L853.78,514q-1.57-3.39-6.66-3.39a7.61,7.61,0,0,0-3.59.66c-.79.44-1.18.87-1.18,1.3,0,1.26,1.2,2,3.61,2.3q9.4,1,12.75,2.14a12.11,12.11,0,0,1,5.72,4,10.76,10.76,0,0,1,2.37,7,11.64,11.64,0,0,1-5.25,10q-5.25,3.69-14.46,3.69-15.54,0-19.23-11.65l11.85-1.63q1,4.15,8,4.15,5.84,0,5.84-2.26A1.7,1.7,0,0,0,852.47,528.77Zm-41.05,0a23.12,23.12,0,0,0-5.34-1.11q-11.67-1.62-14.56-5.08a11.6,11.6,0,0,1-2.9-7.67,11.34,11.34,0,0,1,4.89-9.53q4.89-3.64,12.83-3.64,13.92,0,17.76,10.07L812.73,514q-1.58-3.39-6.65-3.39a7.63,7.63,0,0,0-3.6.66c-.79.44-1.18.87-1.18,1.3,0,1.26,1.2,2,3.61,2.3q9.4,1,12.75,2.14a12.11,12.11,0,0,1,5.72,4,10.76,10.76,0,0,1,2.37,7,11.64,11.64,0,0,1-5.25,10q-5.25,3.69-14.46,3.69-15.54,0-19.23-11.65l11.85-1.63q1,4.15,8.05,4.15,5.84,0,5.84-2.26A1.7,1.7,0,0,0,811.42,528.77Zm-.72,77.13h-15V582.81a9.32,9.32,0,0,0-.7-4.35,2.81,2.81,0,0,0-2.67-1.19,4.15,4.15,0,0,0-2.68.92,3.41,3.41,0,0,0-1.33,1.91,28.25,28.25,0,0,0-.19,4.11V605.9h-15V554.4h15v17.66a12.73,12.73,0,0,1,10.61-5.32,13.77,13.77,0,0,1,5.82,1.15,9.9,9.9,0,0,1,3.85,3,10.79,10.79,0,0,1,1.83,3.51,29.72,29.72,0,0,1,.47,6.57Zm32.43,0a25.56,25.56,0,0,1-.53-5.36q-4.05,6.15-12.3,6.15-6.76,0-10.14-3.47a11.1,11.1,0,0,1-3.36-8q0-6.07,5.51-9.83t19.54-4.5v-.87q0-2.53-1.14-3.36a5.76,5.76,0,0,0-3.37-.83q-5.19,0-5.8,4.19l-13.69-1.28q2.94-12,20-12a37,37,0,0,1,8.5.92,14.24,14.24,0,0,1,6.13,2.89,10,10,0,0,1,3,4.15q.76,2.19.77,8.41v15.32a21.15,21.15,0,0,0,1.17,7.47Zm44.78-28.6h-7.64v14.15c0,1.94.36,3.09,1.09,3.45a4.93,4.93,0,0,0,2.26.55,17.47,17.47,0,0,0,4.29-.64v10.72a46.11,46.11,0,0,1-8.73.86q-6.93,0-10.18-3t-3.25-9.51l0-4.48V577.3h-5.71v-9.77h5.71L866,555l14.26-.22v12.71h7.64ZM950,605.9H935V581.76c0-2-.31-3.26-.92-3.81a3.32,3.32,0,0,0-2.32-.83q-4.1,0-4.1,5.73v23h-15V567.53h13.92V573q3.09-6.22,11-6.23a14.3,14.3,0,0,1,7,1.6,9.63,9.63,0,0,1,4.12,4.15Q950,575,950,581.34ZM832.26,594.09c0,2.32,1.27,3.47,3.8,3.47a6.12,6.12,0,0,0,4.1-1.43q1.7-1.44,1.69-6.34v-1.85Q832.27,589,832.26,594.09Zm0,0c0,2.32,1.27,3.47,3.8,3.47a6.12,6.12,0,0,0,4.1-1.43q1.7-1.44,1.69-6.34v-1.85Q832.27,589,832.26,594.09Zm0,0c0,2.32,1.27,3.47,3.8,3.47a6.12,6.12,0,0,0,4.1-1.43q1.7-1.44,1.69-6.34v-1.85Q832.27,589,832.26,594.09Zm-63.74-80.54c-1.2,1.18-2.38,2.39-3.52,3.62h4A10.91,10.91,0,0,0,768.52,513.55Zm63.74,80.54c0,2.32,1.27,3.47,3.8,3.47a6.12,6.12,0,0,0,4.1-1.43q1.7-1.44,1.69-6.34v-1.85Q832.27,589,832.26,594.09Zm143.29-17.65a4.05,4.05,0,0,0-2.27,2.18q-1.2,2.46-1.2,8.08,0,6.6,1.24,8.73a4,4,0,0,0,3.72,2.13,5.33,5.33,0,0,0,.91-.07A123.55,123.55,0,0,0,975.55,576.44ZM832.26,594.09c0,2.32,1.27,3.47,3.8,3.47a6.12,6.12,0,0,0,4.1-1.43q1.7-1.44,1.69-6.34v-1.85Q832.27,589,832.26,594.09Zm0,0c0,2.32,1.27,3.47,3.8,3.47a6.12,6.12,0,0,0,4.1-1.43q1.7-1.44,1.69-6.34v-1.85Q832.27,589,832.26,594.09Zm0,0c0,2.32,1.27,3.47,3.8,3.47a6.12,6.12,0,0,0,4.1-1.43q1.7-1.44,1.69-6.34v-1.85Q832.27,589,832.26,594.09Z" style="fill: #ec002e"/>
        <g>
          <path d="M691.43,512V540.9h-7.71a31.11,31.11,0,0,0-2.07-5.39q-4.78,6.18-14.15,6.18a21.21,21.21,0,0,1-16.33-7q-6.39-7-6.39-18.84,0-11.55,6.19-19.41t18.41-7.87q9.18,0,14.79,4.68t7.26,13.28l-15.27,1.51q-1.14-8-7-8-7.75,0-7.75,14.79,0,8.94,2.48,11.79a7.71,7.71,0,0,0,6,2.85,7.22,7.22,0,0,0,4.87-1.73,6,6,0,0,0,2-4.76h-8.5V512Z" style="fill: none;stroke: #fff;stroke-miterlimit: 10;stroke-width: 2px"/>
          <path d="M736.66,502.53V540.9H722.77v-6.3q-3,7.1-11.89,7.09c-3.63,0-6.45-1-8.44-3s-3-4.93-3-8.7V502.53h15v24.15a6.06,6.06,0,0,0,.62,3.19,2.74,2.74,0,0,0,2.43.92,3.94,3.94,0,0,0,3.12-1.38,5.66,5.66,0,0,0,1.2-3.86v-23Z" style="fill: none;stroke: #fff;stroke-miterlimit: 10;stroke-width: 2px"/>
          <path d="M763.6,501.74q-9.48,0-15.16,5.92a20.19,20.19,0,0,0-5.69,14.53,18.61,18.61,0,0,0,5.76,13.9q.62.6,1.29,1.14a122.84,122.84,0,0,1,8.64-12.42h0v-.08h.07q3.09-3.9,6.49-7.55h-6.6c0-4.38,1.78-6.56,5.33-6.56A5.47,5.47,0,0,1,767.5,512a3.81,3.81,0,0,1,1,1.6q4-4,8.39-7.58A20.72,20.72,0,0,0,763.6,501.74Z" style="fill: none;stroke: #fff;stroke-miterlimit: 10;stroke-width: 2px"/>
          <path d="M784.1,522.53c0,.53,0,1.26,0,2.19H758.51q3.09-3.9,6.49-7.55h4a10.91,10.91,0,0,0-.53-3.62q4-4,8.39-7.58a19.44,19.44,0,0,1,1.53,1.35Q784.1,512.92,784.1,522.53Z" style="fill: none;stroke: #fff;stroke-miterlimit: 10;stroke-width: 2px"/>
          <path d="M784.06,528.07a16.54,16.54,0,0,1-6.34,9.64q-5.1,4-13.79,4t-14.13-4.46a122.84,122.84,0,0,1,8.64-12.42,9.87,9.87,0,0,0,1.28,5.28q1.2,1.75,4.59,1.76,4.89,0,5.76-4.72Z" style="fill: none;stroke: #fff;stroke-miterlimit: 10;stroke-width: 2px"/>
          <path d="M825.75,528a11.64,11.64,0,0,1-5.25,10q-5.25,3.69-14.46,3.69-15.54,0-19.23-11.65l11.85-1.63q1,4.15,8.05,4.15,5.84,0,5.84-2.26a1.7,1.7,0,0,0-1.13-1.53,23.12,23.12,0,0,0-5.34-1.11q-11.67-1.62-14.56-5.08a11.6,11.6,0,0,1-2.9-7.67,11.34,11.34,0,0,1,4.89-9.53q4.89-3.64,12.83-3.64,13.92,0,17.76,10.07L812.73,514q-1.58-3.39-6.65-3.39a7.63,7.63,0,0,0-3.6.66c-.79.44-1.18.87-1.18,1.3,0,1.26,1.2,2,3.61,2.3q9.4,1,12.75,2.14a12.11,12.11,0,0,1,5.72,4A10.76,10.76,0,0,1,825.75,528Z" style="fill: none;stroke: #fff;stroke-miterlimit: 10;stroke-width: 2px"/>
          <path d="M866.8,528a11.64,11.64,0,0,1-5.25,10q-5.25,3.69-14.46,3.69-15.54,0-19.23-11.65l11.85-1.63q1,4.15,8,4.15,5.84,0,5.84-2.26a1.7,1.7,0,0,0-1.13-1.53,23.25,23.25,0,0,0-5.35-1.11q-11.65-1.62-14.55-5.08a11.6,11.6,0,0,1-2.9-7.67,11.34,11.34,0,0,1,4.89-9.53q4.89-3.64,12.83-3.64,13.92,0,17.76,10.07L853.78,514q-1.57-3.39-6.66-3.39a7.61,7.61,0,0,0-3.59.66c-.79.44-1.18.87-1.18,1.3,0,1.26,1.2,2,3.61,2.3q9.4,1,12.75,2.14a12.11,12.11,0,0,1,5.72,4A10.76,10.76,0,0,1,866.8,528Z" style="fill: none;stroke: #fff;stroke-miterlimit: 10;stroke-width: 2px"/>
        </g>
        <g>
          <path d="M729.15,554.4l-7,29.64L715,554.4H700.12l13.65,51.5h13.81l6.28-26.3v-.06a121.17,121.17,0,0,1,7.27-25.14Z" style="fill: none;stroke: #fff;stroke-miterlimit: 10;stroke-width: 2px"/>
          <path d="M768.41,554.4l-13.62,51.5H741.54l-7.18-28.41-.49,2a121.17,121.17,0,0,1,7.27-25.14h.38l7.63,29.7,7.19-29.7Z" style="fill: none;stroke: #fff;stroke-miterlimit: 10;stroke-width: 2px"/>
          <path d="M810.7,580.93v25h-15V582.81a9.32,9.32,0,0,0-.7-4.35,2.81,2.81,0,0,0-2.67-1.19,4.15,4.15,0,0,0-2.68.92,3.41,3.41,0,0,0-1.33,1.91,28.25,28.25,0,0,0-.19,4.11V605.9h-15V554.4h15v17.66a12.73,12.73,0,0,1,10.61-5.32,13.77,13.77,0,0,1,5.82,1.15,9.9,9.9,0,0,1,3.85,3,10.79,10.79,0,0,1,1.83,3.51A29.72,29.72,0,0,1,810.7,580.93Z" style="fill: none;stroke: #fff;stroke-miterlimit: 10;stroke-width: 2px"/>
          <path d="M856.26,598.43V583.11q0-6.23-.77-8.41a10,10,0,0,0-3-4.15,14.24,14.24,0,0,0-6.13-2.89,37,37,0,0,0-8.5-.92q-17,0-20,12l13.69,1.28q.62-4.18,5.8-4.19a5.76,5.76,0,0,1,3.37.83q1.14.82,1.14,3.36v.87q-14,.75-19.54,4.5t-5.51,9.83a11.1,11.1,0,0,0,3.36,8q3.38,3.48,10.14,3.47,8.25,0,12.3-6.15a25.56,25.56,0,0,0,.53,5.36h14.3A21.15,21.15,0,0,1,856.26,598.43Zm-14.41-8.64q0,4.9-1.69,6.34a6.12,6.12,0,0,1-4.1,1.43c-2.53,0-3.8-1.15-3.8-3.47q0-5.13,9.59-6.15Z" style="fill: none;stroke: #fff;stroke-miterlimit: 10;stroke-width: 2px"/>
          <path d="M880.27,577.3v14.15c0,1.94.36,3.09,1.09,3.45a4.93,4.93,0,0,0,2.26.55,17.47,17.47,0,0,0,4.29-.64v10.72a46.11,46.11,0,0,1-8.73.86q-6.93,0-10.18-3t-3.25-9.51l0-4.48V577.3h-5.71v-9.77h5.71L866,555l14.26-.22v12.71h7.64v9.77Z" style="fill: none;stroke: #fff;stroke-miterlimit: 10;stroke-width: 2px"/>
          <path d="M950,581.34V605.9H935V581.76c0-2-.31-3.26-.92-3.81a3.32,3.32,0,0,0-2.32-.83q-4.1,0-4.1,5.73v23h-15V567.53h13.92V573q3.09-6.22,11-6.23a14.3,14.3,0,0,1,7,1.6,9.63,9.63,0,0,1,4.12,4.15Q950,575,950,581.34Z" style="fill: none;stroke: #fff;stroke-miterlimit: 10;stroke-width: 2px"/>
          <path d="M992.34,572.4q-5.75-5.65-15.18-5.66a26.11,26.11,0,0,0-3.92.28q1.34,4.63,2.31,9.42a4.17,4.17,0,0,1,1.53-.27,3.93,3.93,0,0,1,3.91,2.38q1.1,2.37,1.09,7.77a36.14,36.14,0,0,1-.77,7.6q-.66,3.15-3.36,3.57c0,1.16,0,2.33,0,3.51,0,1.9,0,3.79-.13,5.67q8.89-.3,14.39-5.73a19.35,19.35,0,0,0,5.81-14.36A19.11,19.11,0,0,0,992.34,572.4Z" style="fill: none;stroke: #fff;stroke-miterlimit: 10;stroke-width: 2px"/>
          <path d="M978,601c0,1.9,0,3.79-.13,5.67l-1,0q-9.52,0-15.12-5.94a19.65,19.65,0,0,1-5.61-13.94,19.28,19.28,0,0,1,5.85-14.34,19.64,19.64,0,0,1,11.3-5.45q1.34,4.63,2.31,9.42a4.05,4.05,0,0,0-2.27,2.18q-1.2,2.46-1.2,8.08,0,6.6,1.24,8.73a4,4,0,0,0,3.72,2.13,5.33,5.33,0,0,0,.91-.07C978,598.65,978,599.82,978,601Z" style="fill: none;stroke: #fff;stroke-miterlimit: 10;stroke-width: 2px"/>
          <polygon points="1055.79 567.53 1043.68 605.9 1032.88 605.9 1027.88 585.11 1022.65 605.9 1011.96 605.9 999.62 567.53 1014.37 567.53 1019.42 586.32 1024.23 567.53 1035.33 567.53 1040.08 586.31 1045.37 567.53 1055.79 567.53" style="fill: none;stroke: #fff;stroke-miterlimit: 10;stroke-width: 2px"/>
          <rect x="1070.66" y="592.13" width="14.4" height="13.77" style="fill: none;stroke: #fff;stroke-miterlimit: 10;stroke-width: 2px"/>
          <path d="M1096.65,569.68a14.57,14.57,0,0,1-1,5.51,12.34,12.34,0,0,1-2.55,4.1,44,44,0,0,1-5.06,4.16,22.05,22.05,0,0,0-3.41,2.85,5.3,5.3,0,0,0-1,2.59h-12.49a19.25,19.25,0,0,1,.81-6.59,12.31,12.31,0,0,1,3.33-4.28,25.15,25.15,0,0,0,4.74-5.11A7.83,7.83,0,0,0,1081,569a4.9,4.9,0,0,0-1.24-3.6,4.15,4.15,0,0,0-3.08-1.26q-5.46,0-5.5,8.67l-13.8-1.5q3.15-17.7,20.5-17.7,8.73,0,13.77,4.62A14.91,14.91,0,0,1,1096.65,569.68Z" style="fill: none;stroke: #fff;stroke-miterlimit: 10;stroke-width: 2px"/>
        </g>
      </g>
    </g>
  </g>
</svg>
